<svg class="ldi-dq7hkb" width="200px"  height="200px"  xmlns="http://www.w3.org/2000/svg" xmlns:xlink="http://www.w3.org/1999/xlink" viewBox="0 0 100 100" preserveAspectRatio="xMidYMid" style="background: none;"><!--?xml version="1.0" encoding="utf-8"?--><!--Generator: Adobe Illustrator 21.0.0, SVG Export Plug-In . SVG Version: 6.00 Build 0)--><svg version="1.1" id="圖層_1" xmlns="http://www.w3.org/2000/svg" xmlns:xlink="http://www.w3.org/1999/xlink" x="0px" y="0px" viewBox="0 0 100 100" style="transform-origin: 50px 50px 0px;" xml:space="preserve"><g style="transform-origin: 50px 50px 0px;"><g style="transform-origin: 50px 50px 0px; transform: scale(0.6);"><g style="transform-origin: 50px 50px 0px; animation-duration: 1s; animation-delay: -1s; animation-direction: normal;" class="ld ld-breath"><g><style type="text/css" class="" style="transform-origin: 50px 50px 0px; animation-duration: 1s; animation-delay: 0s; animation-direction: normal;">.st0{fill:#333333;} .st1{fill:#E0E0E0;stroke:#333333;stroke-width:3.5;stroke-linecap:round;stroke-linejoin:round;stroke-miterlimit:10;} .st2{fill:#666666;stroke:#333333;stroke-width:3.5;stroke-linecap:round;stroke-linejoin:round;stroke-miterlimit:10;} .st3{fill:#E0E0E0;stroke:#333333;stroke-width:3.5;stroke-miterlimit:10;} .st4{fill:#F47E60;stroke:#333333;stroke-width:3.5;stroke-linejoin:round;stroke-miterlimit:10;} .st5{fill:#666666;stroke:#333333;stroke-width:3.5;stroke-miterlimit:10;} .st6{opacity:0.2;} .st7{fill:#66503A;stroke:#333333;stroke-width:3.5;stroke-miterlimit:10;} .st8{fill:none;stroke:#333333;stroke-width:3.5;stroke-linejoin:round;stroke-miterlimit:10;} .st9{fill:#66503A;stroke:#333333;stroke-width:3.5;stroke-linecap:round;stroke-linejoin:round;stroke-miterlimit:10;} .st10{fill:#F5E6C8;stroke:#333333;stroke-width:3.5;stroke-linecap:round;stroke-linejoin:round;stroke-miterlimit:10;} .st11{fill:#F8B26A;stroke:#333333;stroke-width:3.5;stroke-linecap:round;stroke-linejoin:round;stroke-miterlimit:10;} .st12{fill:#E0E0E0;stroke:#333333;stroke-width:3.5;stroke-linejoin:round;stroke-miterlimit:10;} .st13{fill:none;stroke:#333333;stroke-width:3.5;stroke-linecap:round;stroke-linejoin:round;stroke-miterlimit:10;} .st14{fill:#E15B64;stroke:#333333;stroke-width:3.5;stroke-miterlimit:10;} .st15{fill:none;stroke:#333333;stroke-width:3.5;stroke-miterlimit:10;} .st16{fill:none;stroke:#333333;stroke-width:3.5;stroke-linecap:round;stroke-miterlimit:10;} .st17{fill:#E15B64;stroke:#333333;stroke-width:3.5;stroke-linecap:round;stroke-linejoin:round;stroke-miterlimit:10;} .st18{fill:#A0C8D7;stroke:#333333;stroke-width:3.5;stroke-linecap:round;stroke-linejoin:round;stroke-miterlimit:10;} .st19{fill:#F8B26A;stroke:#333333;stroke-width:3.5;stroke-miterlimit:10;} .st20{fill:#E0E0E0;stroke:#FFFFFF;stroke-width:3.5;stroke-linecap:round;stroke-miterlimit:10;} .st21{opacity:0.2;stroke:#000000;stroke-width:3.5;stroke-miterlimit:10;} .st22{fill:none;stroke:#FFFFFF;stroke-width:3.5;stroke-linecap:round;stroke-miterlimit:10;} .st23{opacity:0.2;stroke:#000000;stroke-width:3.5;stroke-linecap:round;stroke-miterlimit:10;} .st24{fill:#FFFFFF;} .st25{opacity:0.2;stroke:#000000;stroke-width:3.5;stroke-linejoin:round;stroke-miterlimit:10;} .st26{fill:none;stroke:#FFFFFF;stroke-width:3.5;stroke-linecap:round;stroke-linejoin:round;stroke-miterlimit:10;} .st27{opacity:0.2;stroke:#000000;stroke-width:3.5;stroke-linecap:round;stroke-linejoin:round;stroke-miterlimit:10;} .st28{fill:#F8B26A;stroke:#FFFFFF;stroke-width:3.5;stroke-linecap:round;stroke-linejoin:round;stroke-miterlimit:10;} .st29{fill:#666666;stroke:#333333;stroke-width:3.5;stroke-linejoin:round;stroke-miterlimit:10;} .st30{fill:#E0E0E0;} .st31{fill:#4A3827;stroke:#333333;stroke-width:3.5;stroke-miterlimit:10;} .st32{fill:#E15B64;stroke:#333333;stroke-width:3.5;stroke-linejoin:round;stroke-miterlimit:10;} .st33{fill:#FFFFFF;stroke:#333333;stroke-width:3.5;stroke-miterlimit:10;} .st34{fill:#A0C8D7;stroke:#A0C8D7;stroke-width:3.5;stroke-miterlimit:10;} .st35{fill:#A0C8D7;stroke:#333333;stroke-width:3.5;stroke-miterlimit:10;} .st36{fill:#E15B64;} .st37{fill:#983733;stroke:#333333;stroke-width:3.5;stroke-miterlimit:10;} .st38{fill:#77A4BD;stroke:#333333;stroke-width:3.5;stroke-miterlimit:10;} .st39{fill:#E0E0E0;stroke:#333333;stroke-width:3.5;stroke-linecap:round;stroke-linejoin:round;} .st40{fill:#66503A;stroke:#333333;stroke-width:3.5;stroke-linecap:round;stroke-linejoin:round;} .st41{fill:#F8B26A;stroke:#333333;stroke-width:3.5;stroke-linecap:round;stroke-linejoin:round;} .st42{opacity:0.2;stroke:#000000;stroke-width:3.5;stroke-linecap:round;stroke-linejoin:round;} .st43{opacity:0.6;fill:#FFFFFF;} .st44{opacity:0.1;stroke:#000000;stroke-width:3.5;stroke-miterlimit:10;} .st45{fill:none;stroke:#333333;stroke-width:3.5;stroke-linecap:round;stroke-linejoin:round;} .st46{fill:none;stroke:#FFFFFF;stroke-width:3.5;stroke-linecap:round;stroke-linejoin:round;}</style><g class="" style="transform-origin: 50px 50px 0px; animation-duration: 1s; animation-delay: 0.05s; animation-direction: normal;"><path class="st5" d="M20.518,54.539c-5.646,0-10.223,4.577-10.223,10.222c0,5.646,4.577,10.222,10.223,10.222 c5.646,0,10.223-4.577,10.223-10.222C30.741,59.115,26.164,54.539,20.518,54.539z M20.518,69.02c-2.352,0-4.259-1.907-4.259-4.259 c0-2.352,1.907-4.259,4.259-4.259s4.259,1.907,4.259,4.259C24.778,67.113,22.871,69.02,20.518,69.02z" fill="rgb(102, 102, 102)" stroke="rgb(51, 51, 51)" style="fill: rgb(102, 102, 102); stroke: rgb(51, 51, 51);"></path></g><g class="" style="transform-origin: 50px 50px 0px; animation-duration: 1s; animation-delay: 0.1s; animation-direction: normal;"><path class="st6" d="M22.835,64.193c0.045,0.183,0.076,0.371,0.076,0.568c0,1.32-1.073,2.393-2.393,2.393 c-1.305,0-2.366-1.051-2.389-2.351L8.5,66.05c0.646,6.062,5.788,10.8,12.018,10.8c6.666,0,12.089-5.423,12.089-12.089 c0-0.618-0.061-1.221-0.151-1.815L22.835,64.193z" fill="rgb(0, 0, 0)" style="fill: rgb(0, 0, 0);"></path></g><g class="" style="transform-origin: 50px 50px 0px; animation-duration: 1s; animation-delay: 0.15s; animation-direction: normal;"><path class="st15" d="M62.649,53.336l5.437,18.994c0.203,0.803-0.679,1.443-1.38,1L43.692,58.477" stroke="rgb(51, 51, 51)" style="stroke: rgb(51, 51, 51);"></path></g><g class="" style="transform-origin: 50px 50px 0px; animation-duration: 1s; animation-delay: 0.2s; animation-direction: normal;"><path class="st16" d="M20.518,64.761c0,0,44.996-12.202,45.003-12.204c1.78-0.483,3.328-1.662,4.267-3.249 c1.245-2.104,1.127-4.503,1.484-6.827c0.296-1.925,0.593-3.85,0.889-5.775c0.32-2.078,0.64-4.155,0.96-6.233l4.173-1.095" stroke="rgb(51, 51, 51)" style="stroke: rgb(51, 51, 51);"></path></g><g style="transform-origin: 50px 50px 0px;"><g><g class="" style="transform-origin: 50px 50px 0px; animation-duration: 1s; animation-delay: 0.25s; animation-direction: normal;"><path class="st14" d="M80.019,31.282c-1.316-0.063-2.476-1.003-2.762-2.353c-0.34-1.605,0.686-3.181,2.29-3.521l10.366-2.195 c1.606-0.335,3.181,0.687,3.521,2.291c0.34,1.605-0.686,3.181-2.29,3.521l-10.366,2.195C80.523,31.275,80.268,31.294,80.019,31.282 z" stroke="rgb(51, 51, 51)" fill="rgb(225, 91, 100)" style="stroke: rgb(51, 51, 51); fill: rgb(225, 91, 100);"></path></g></g></g><g class="" style="transform-origin: 50px 50px 0px; animation-duration: 1s; animation-delay: 0.3s; animation-direction: normal;"><path class="st14" d="M72.162,34.576H20.517c-0.982,0-1.555,1.109-0.986,1.91l15.681,24.224l30.06-8.397 c2.589-0.723,4.539-2.858,5.027-5.501L72.162,34.576z" stroke="rgb(51, 51, 51)" fill="rgb(225, 91, 100)" style="stroke: rgb(51, 51, 51); fill: rgb(225, 91, 100);"></path></g><g class="" style="transform-origin: 50px 50px 0px; animation-duration: 1s; animation-delay: 0.35s; animation-direction: normal;"><path class="st6" d="M21.007,66.563c0,0,11.164-3.028,22.371-6.067l22.332,14.412c0.458,0.29,0.974,0.433,1.488,0.433 c0.573,0,1.145-0.179,1.634-0.533c0.927-0.673,1.345-1.825,1.049-2.992l-4.916-17.175c0.643-0.174,1.015-0.275,1.045-0.283 c2.239-0.607,4.202-2.102,5.385-4.1c1.133-1.916,1.34-3.972,1.521-5.786c0.054-0.536,0.111-1.074,0.189-1.607l-45.99,8.773 l5.176,7.996c-3.667,0.994-7.729,2.096-12.261,3.325L21.007,66.563z M61.361,55.619l4.228,14.768L48.227,59.181 C53.31,57.803,58.052,56.517,61.361,55.619z" fill="rgb(0, 0, 0)" style="fill: rgb(0, 0, 0);"></path></g><g class="" style="transform-origin: 50px 50px 0px; animation-duration: 1s; animation-delay: 0.4s; animation-direction: normal;"><line class="st22" x1="34.297" y1="46.919" x2="34.402" y2="47.07" stroke="rgb(255, 255, 255)" style="stroke: rgb(255, 255, 255);"></line></g><g class="" style="transform-origin: 50px 50px 0px; animation-duration: 1s; animation-delay: 0.45s; animation-direction: normal;"><line class="st22" x1="29.411" y1="39.9" x2="31.475" y2="42.866" stroke="rgb(255, 255, 255)" style="stroke: rgb(255, 255, 255);"></line></g><metadata xmlns:d="https://loading.io/stock/" class="" style="transform-origin: 50px 50px 0px; animation-duration: 1s; animation-delay: 0.5s; animation-direction: normal;">
<d:name class="" style="transform-origin: 50px 50px 0px; animation-duration: 1s; animation-delay: 0.55s; animation-direction: normal;">barrow</d:name>
<d:tags class="" style="transform-origin: 50px 50px 0px; animation-duration: 1s; animation-delay: 0.6s; animation-direction: normal;">barrow,farm,utensil,garden cart,construction,building,trolley</d:tags>
<d:license class="" style="transform-origin: 50px 50px 0px; animation-duration: 1s; animation-delay: 0.65s; animation-direction: normal;">cc-by</d:license>
<d:slug class="" style="transform-origin: 50px 50px 0px; animation-duration: 1s; animation-delay: 0.7s; animation-direction: normal;">dq7hkb</d:slug>
</metadata></g></g></g></g><style type="text/css" class="" style="transform-origin: 50px 50px 0px; animation-duration: 1s; animation-delay: 0.75s; animation-direction: normal;">@keyframes ld-breath {
  0% {
    -webkit-transform: scale(0.86);
    transform: scale(0.86);
  }
  50% {
    -webkit-transform: scale(1.06);
    transform: scale(1.06);
  }
  100% {
    -webkit-transform: scale(0.86);
    transform: scale(0.86);
  }
}
@-webkit-keyframes ld-breath {
  0% {
    -webkit-transform: scale(0.86);
    transform: scale(0.86);
  }
  50% {
    -webkit-transform: scale(1.06);
    transform: scale(1.06);
  }
  100% {
    -webkit-transform: scale(0.86);
    transform: scale(0.86);
  }
}
.ld.ld-breath {
  -webkit-animation: ld-breath 1s infinite;
  animation: ld-breath 1s infinite;
}
</style></svg></svg>